<?xml version="1.0" encoding="utf-8"?>
<!-- Generator: Adobe Illustrator 25.2.1, SVG Export Plug-In . SVG Version: 6.00 Build 0)  -->
<svg version="1.1" id="Layer_21" xmlns="http://www.w3.org/2000/svg" xmlns:xlink="http://www.w3.org/1999/xlink" x="0px" y="0px"
	 viewBox="0 0 421 341" style="enable-background:new 0 0 421 341;" xml:space="preserve">
<style type="text/css">
	.st0{fill:#EB8A4D;}
	.st1{fill:#342D38;}
	.st2{fill:#191717;}
	.st3{fill:#2E2422;}
	.st4{fill:#FF9168;}
	.st5{fill:#E14E3C;}
	.st6{fill:#FFD59B;}
	.st7{fill:#5944C6;}
	.st8{fill:#3C32A0;}
	.st9{fill:#4A3F72;}
	.st10{fill:#7AC8FF;}
	.st11{fill:#36304C;}
	.st12{fill:#62699C;}
	.st13{fill:#CDD7EC;}
	.st14{fill:#EF8A3D;}
	.st15{fill:#F7B971;}
	.st16{fill:#FFFFFF;}
	.st17{fill:#FDE981;}
	.st18{fill:#FFC000;}
	.st19{fill:#FFBF00;}
	.st20{fill:#E08100;}
	.st21{fill:#FDEC83;}
	.st22{fill:#80C56E;}
	.st23{fill:#66AD66;}
	.st24{fill:#FEC37D;}
	.st25{fill:#F9AE5D;}
	.st26{fill:#F2A559;}
	.st27{fill:#EA8F3D;}
</style>
<g>
	<g>
		<polygon class="st0" points="339.81,287.28 339.81,294.64 330.23,294.64 330.23,321.4 269.34,321.23 268.3,321.23 34.75,321.4 
			34.75,294.98 26,294.98 26,287.28 		"/>
	</g>
	<g>
		<polygon class="st1" points="339.81,287.28 339.81,294.64 330.23,294.64 330.23,321.4 269.34,321.23 269.33,321.23 269.33,301.71 
			34.75,302 34.75,294.98 268.82,295.36 268.82,287.28 		"/>
	</g>
	<g>
		<rect x="34.75" y="304.08" class="st2" width="234.59" height="0.51"/>
	</g>
	<g>
		<path class="st3" d="M220.97,169.47c0,0-4.63-3.09-3.09-8.75s-0.51-6.69-1.54-8.23c-1.03-1.54-1.03-3.5,0-5.1
			c1.03-1.59,4.63-6.74,11.32-5.19s6.69,2.57,12.35,2.06c5.66-0.51,14.4-0.51,13.89,13.89c0,0,2.57,12.86-5.14,20.58
			s1.54,7.2,1.54,7.2s-3.49,2.07-5.34,0.01c0,0-1.34,3.08-2.89,3.08S220.97,169.47,220.97,169.47z"/>
	</g>
	<g>
		<path class="st4" d="M252.87,172.04c-0.51,2.57-2.57,5.66-6.69,5.14c0,0-5.14,12.35-5.14,16.46s3.09,8.75,3.09,8.75l-24.95,7.46
			c0,0-0.5-9.02,0.41-15.86c0.36-2.68,0.81-5.07,1.39-6.52c-0.01,0-0.01,0-0.01-0.01c-0.21-0.09-3.59-1.64-3.59-4.62
			c0-3.09,3.09-15.43,3.09-16.98c0-1.54,2.57-12.86,5.14-12.86c0,0,4.12,8.75,13.38,6.69c0,0-1.03,7.2,6.69,7.2
			c0,0-1.03,4.35,0,5.26c1.03,0.91,2.06,0.4,3.09-2.18C249.78,167.41,253.38,169.47,252.87,172.04z"/>
	</g>
	<g>
		<path class="st4" d="M286.82,114.42c0,0-4.63,3.09-1.03,7.72c3.6,4.63,9.77,6.17,12.35,8.75c2.57,2.57,4.12,4.12,5.14,11.32
			c1.03,7.2,6.17,34.98,6.17,34.98l20.58-7.2c0,0-15.43-37.55-16.98-40.64c-1.54-3.09-4.12-8.23-4.12-10.29s-1.03-12.86-9.26-9.26
			c0,0-3.09-2.57-4.63,0c0,0-2.57-2.57-4.12,1.03C290.94,110.82,286.82,110.31,286.82,114.42z"/>
	</g>
	<g>
		<path class="st4" d="M163.69,145.03c0,0,23.85-26.49,27.45-30.61c3.6-4.12,7.2-7.72,8.75-10.29c1.54-2.57,4.63-11.32,11.32-6.17
			c0,0,3.09-1.03,4.63,1.03c0,0,3.6-1.03,4.12,2.57c0,0,3.09,0.51,2.06,5.66c0,0,2.06,4.63,1.03,6.17
			c-1.03,1.54-5.66,4.63-9.26,4.63s-8.23-0.51-9.77,1.03c-1.54,1.54-23.15,39.61-23.15,39.61L163.69,145.03z"/>
	</g>
	<g>
		<g>
			<path class="st5" d="M296.3,120.93c-0.91,0-1.74-0.29-2.46-0.86c-2.81-2.22-3.14-7.96-3.16-8.2l0.51-0.03
				c0,0.06,0.33,5.75,2.96,7.83c0.8,0.64,1.75,0.87,2.83,0.69l0.6-0.6l0.17,0.1c0.01,0.01,1.27,0.74,2.27,0.45
				c0.42-0.12,0.74-0.4,0.96-0.86l0.16-0.32l0.25,0.25c0.01,0.01,0.22,0.21,0.61,0.18c0.48-0.04,1.03-0.45,1.58-1.18
				c1.46-1.94,0.99-4.92,0.98-4.95l-0.13-0.79l0.57,0.56c0.01,0.01,0.97,0.95,1.88,0.95v0.51c-0.66,0-1.31-0.37-1.74-0.68
				c0.07,1.04,0.03,3.13-1.14,4.69c-0.66,0.87-1.32,1.34-1.97,1.39c-0.31,0.02-0.55-0.06-0.72-0.14c-0.28,0.44-0.66,0.73-1.14,0.87
				c-0.99,0.29-2.08-0.19-2.5-0.41l-0.44,0.44l-0.08,0.01C296.86,120.9,296.58,120.93,296.3,120.93z"/>
		</g>
	</g>
	<g>
		<g>
			<path class="st5" d="M297.41,120.23c-1.04-1.57-2.55-9.04-2.61-9.35l0.5-0.1c0.02,0.08,1.54,7.68,2.53,9.17L297.41,120.23z"/>
		</g>
	</g>
	<g>
		<g>
			<path class="st5" d="M301.23,119.83c-0.26,0-0.74,0-1.8-8.97l0.51-0.06c0.46,3.91,1.12,8.19,1.42,8.57
				c-0.01-0.01-0.06-0.05-0.13-0.05V119.83z"/>
		</g>
	</g>
	<g>
		<g>
			<path class="st5" d="M292.53,122.48c-0.23,0-0.45-0.03-0.65-0.1c-1.77-0.59-2.22-2.91-1.19-6.2c0.65-2.08-0.21-3.48-1.02-3.81
				c-0.13-0.05-0.44-0.14-0.56,0.11c-0.54,1.08-2.08,2.11-2.15,2.16l-0.29-0.43c0.01-0.01,1.49-1,1.97-1.96
				c0.21-0.43,0.69-0.56,1.21-0.35c1,0.4,2.07,2.04,1.32,4.44c-0.93,2.99-0.61,5.07,0.86,5.56c0.56,0.18,1.43-0.04,2.35-0.29
				c1.49-0.39,3.18-0.84,4.64,0.01l-0.26,0.45c-1.28-0.74-2.86-0.32-4.25,0.05C293.79,122.3,293.11,122.48,292.53,122.48z"/>
		</g>
	</g>
	<g>
		<g>
			<path class="st5" d="M292.6,121.76c-0.54,0-1.16-0.15-1.81-0.59l0.29-0.43c1.85,1.25,3.3-0.19,3.36-0.25l0.37,0.36
				C294.8,120.87,293.9,121.76,292.6,121.76z"/>
		</g>
	</g>
	<g>
		<g>
			<path class="st5" d="M215.83,111.59c-1.55,0-2.13-1.08-2.28-1.9c-0.73,0.36-1.41,0.43-2.02,0.22c-0.84-0.28-1.31-1.01-1.5-1.37
				c-1.42,0.32-2.46,0.18-3.09-0.4c-0.49-0.45-0.62-1.06-0.64-1.49c-0.63,0.33-1.22,0.43-1.74,0.29c-0.54-0.14-0.99-0.54-1.3-1.16
				c-0.49-0.99,1.23-4.71,1.89-6.06c-0.59,0.2-1.46,1.48-1.94,2.46c-0.06,0.13-0.22,0.18-0.35,0.12c-0.13-0.06-0.18-0.22-0.12-0.35
				c0.02-0.03,0.4-0.8,0.92-1.52c0.77-1.06,1.44-1.45,1.99-1.17l0.23,0.12l-0.12,0.23c-1.04,2.09-2.37,5.31-2.06,5.94
				c0.17,0.33,0.47,0.76,0.97,0.89c0.49,0.13,1.07-0.03,1.74-0.47l0.49-0.33l-0.09,0.58c0,0.01-0.15,0.97,0.46,1.54
				c0.53,0.49,1.48,0.57,2.82,0.23l0.22-0.05l0.08,0.21c0,0.01,0.41,0.98,1.29,1.28c0.56,0.19,1.22,0.06,1.94-0.37l0.39-0.23l0,0.45
				c0,0.07,0.03,1.8,1.8,1.8c1.74,0,1.8-0.75,1.8-0.78c0.01-0.14,0.12-0.25,0.26-0.25c0,0,0,0,0.01,0c0.14,0,0.25,0.11,0.25,0.25
				C218.14,110.36,218.12,111.59,215.83,111.59z"/>
		</g>
	</g>
	<g>
		<g>
			<path class="st5" d="M206.57,106.45c-0.05,0-0.09-0.01-0.13-0.04c-0.12-0.07-0.16-0.23-0.09-0.35l4.63-7.72
				c0.07-0.12,0.23-0.16,0.35-0.09c0.12,0.07,0.16,0.23,0.09,0.35l-4.63,7.72C206.74,106.41,206.66,106.45,206.57,106.45z"/>
		</g>
	</g>
	<g>
		<g>
			<path class="st5" d="M210.17,108.51c-0.05,0-0.1-0.01-0.14-0.04c-0.12-0.08-0.15-0.24-0.08-0.36l5.66-8.75
				c0.08-0.12,0.24-0.15,0.36-0.08c0.12,0.08,0.15,0.24,0.08,0.36l-5.66,8.75C210.34,108.47,210.25,108.51,210.17,108.51z"/>
		</g>
	</g>
	<g>
		<g>
			<path class="st5" d="M213.77,109.54c-0.06,0-0.11-0.02-0.16-0.06c-0.11-0.09-0.13-0.25-0.04-0.36l5.66-7.2
				c0.09-0.11,0.25-0.13,0.36-0.04c0.11,0.09,0.13,0.25,0.04,0.36l-5.66,7.2C213.92,109.5,213.85,109.54,213.77,109.54z"/>
		</g>
	</g>
	<g>
		<g>
			<path class="st5" d="M214.66,112.73c-0.33,0-0.65-0.04-0.96-0.14c-0.44-0.14-0.96-0.49-1.57-0.89c-1.62-1.08-3.63-2.43-5.38-0.69
				c-0.1,0.1-0.26,0.1-0.36,0c-0.1-0.1-0.1-0.26,0-0.36c2.04-2.04,4.35-0.5,6.03,0.62c0.57,0.38,1.06,0.71,1.44,0.83
				c1.43,0.45,3.35-0.5,3.8-1.56l0.09-0.2c0.07-0.15,0.12-0.28,0.12-0.31c-0.08-0.22-0.23-0.62-0.23-2.24
				c0-3.24,2.18-4.93,3.34-4.93c1.19,0,1.29,3.35,1.29,4.37c0,0.14-0.12,0.26-0.26,0.26c-0.14,0-0.26-0.12-0.26-0.26
				c0-2.06-0.36-3.86-0.77-3.86c-0.85,0-2.83,1.5-2.83,4.41c0,1.53,0.13,1.89,0.18,2.04c0.08,0.23,0.05,0.31-0.12,0.71l-0.08,0.2
				C217.68,111.79,216.15,112.73,214.66,112.73z"/>
		</g>
	</g>
	<g>
		<polygon class="st6" points="214.29,200.85 211.2,217.31 249.27,215.25 248.84,200.85 238.98,196.73 230.23,199.82 220.89,207.02 
			219.43,199.82 		"/>
	</g>
	<g>
		<path class="st7" d="M336.21,188.5c0,0-2.57,6.17-8.75,10.29c-6.17,4.12-20.06,21.61-21.61,23.15
			c-1.54,1.54-20.06,16.98-22.12,20.58c-2.06,3.6-18.26,45.01-18.26,45.01h-87.46c0,0,1.8-10.03,2.83-16.2s4.63-36.01,4.63-36.01
			s-7.72-18.52-13.38-26.24s-15.95-27.78-17.49-30.87c-1.54-3.09-10.29-11.83-3.09-17.49c0,0-3.6,0-2.06-2.57
			c1.54-2.57,6.69-9.77,6.69-9.77s3.09-5.14,7.2-3.6c4.12,1.54,19.03,13.38,19.03,13.38s1.03,2.57,0,3.6s-3.6,3.6-3.6,3.6
			s11.32,19.55,13.38,22.64c2.06,3.09,8.23,15.43,22.64,12.86c0,0-3.09,12.35,5.14,13.89c8.23,1.54,21.22-4.12,29.9-13.89l3.02,1.54
			c0,0,16.98,3.6,21.61,1.54c4.63-2.06,7.2-2.57,13.38-6.17c6.17-3.6,20.58-13.89,20.58-13.89s-4.12-4.63-2.57-6.17
			c1.54-1.54,21.61-9.26,25.21-8.75c3.6,0.51,3.6,7.72,3.6,7.72S339.3,184.39,336.21,188.5z"/>
	</g>
	<g>
		<path class="st8" d="M182.91,161.24c-1.03,1.03-3.6,3.6-3.6,3.6s-8.75-1.03-13.38-2.06c-4.63-1.03-13.89-2.57-13.89-2.57
			s-3.6,0-2.06-2.57s6.69-9.77,6.69-9.77s3.09-5.14,7.2-3.6c4.12,1.54,19.03,13.38,19.03,13.38S183.93,160.21,182.91,161.24z"/>
	</g>
	<g>
		<path class="st8" d="M335.18,176.16l-26.24,7.2c0,0-4.12-4.63-2.57-6.17c1.54-1.54,21.61-9.26,25.21-8.75
			C335.18,168.95,335.18,176.16,335.18,176.16z"/>
	</g>
	<g>
		<polygon class="st9" points="169.02,190.05 169.02,265.16 163.1,265.11 43.49,264.13 43.49,190.05 		"/>
	</g>
	<g>
		<polygon class="st10" points="169.02,190.05 169.02,265.16 163.1,265.11 163.1,190.05 		"/>
	</g>
	<g>
		<rect x="121.17" y="256.92" class="st11" width="15.43" height="5.14"/>
	</g>
	<g>
		<path class="st12" d="M128.89,287.63v0.31H90.82V209.6h20.82l-0.12,55.05h-4.68l-0.08,18l17.15,0.01
			C126.66,282.66,128.89,284.88,128.89,287.63z"/>
	</g>
	<g>
		<polygon class="st13" points="111.64,209.6 111.52,264.65 108.83,264.65 108.83,209.6 		"/>
	</g>
	<g>
		<circle class="st12" cx="124.77" cy="259.5" r="1.03"/>
	</g>
	<g>
		<circle class="st12" cx="129.4" cy="259.5" r="1.03"/>
	</g>
	<g>
		<circle class="st12" cx="134.03" cy="259.5" r="1.03"/>
	</g>
	<g>
		<g>
			<path class="st2" d="M122.56,321.6c-0.07,0-0.15-0.03-0.2-0.09c-3.98-4.79-5.12-10.71-3.38-17.6c1.53-6.08,5-11.64,7.64-15.23
				c4.32-5.89,1.36-8.87-1.77-12.03c-0.82-0.83-1.68-1.69-2.35-2.59c-3.15-4.19,1.82-14.25,2.03-14.67
				c0.06-0.13,0.22-0.18,0.35-0.12c0.13,0.06,0.18,0.22,0.12,0.35c-0.05,0.1-5.04,10.19-2.08,14.14c0.65,0.87,1.45,1.68,2.3,2.53
				c3,3.02,6.39,6.45,1.82,12.69c-12.67,17.27-8.12,27.59-4.28,32.2c0.09,0.11,0.08,0.27-0.03,0.36
				C122.68,321.58,122.62,321.6,122.56,321.6z"/>
		</g>
	</g>
	<g>
		<g>
			<path class="st2" d="M141,322.11c-0.03,0-0.05,0-0.08-0.01c-0.14-0.04-0.21-0.19-0.16-0.32c1.39-4.25-1.21-10.91-3.86-15.33
				c-2.85-4.75-3.85-8.59-0.51-14.15c3.35-5.59-2.27-15.9-4.12-19.29c-3.12-5.72,1.36-13.31,1.55-13.63
				c0.07-0.12,0.23-0.16,0.35-0.09c0.12,0.07,0.16,0.23,0.09,0.35c-0.05,0.08-4.52,7.66-1.54,13.12c5.12,9.4,6.47,15.87,4.11,19.8
				c-2.86,4.77-2.73,8.21,0.51,13.63c2.71,4.51,5.35,11.34,3.91,15.75C141.21,322.04,141.11,322.11,141,322.11z"/>
		</g>
	</g>
	<g>
		<g>
			<path class="st2" d="M130.29,321.59c-0.01,0-0.03,0-0.04,0c-0.14-0.02-0.24-0.15-0.22-0.29c0.02-0.14,2.14-14.5-1.89-21.54
				c-1.17-2.05-2.52-3.82-3.72-5.39c-2.99-3.93-5.36-7.03-1.91-10.86c1.3-1.44,2.45-2.46,3.47-3.36c2.58-2.28,3.87-3.42,3.15-7.74
				l-0.22-1.3c-0.96-5.68-1.65-9.78,0.29-11.78c0.1-0.1,0.26-0.1,0.36-0.01s0.1,0.26,0.01,0.36c-1.76,1.82-1.05,6.02-0.15,11.34
				l0.22,1.3c0.77,4.6-0.69,5.88-3.32,8.21c-1.01,0.89-2.15,1.9-3.43,3.32c-3.16,3.51-1.13,6.17,1.93,10.2
				c1.2,1.58,2.57,3.37,3.76,5.45c4.11,7.2,2.04,21.28,1.95,21.88C130.53,321.5,130.42,321.59,130.29,321.59z"/>
		</g>
	</g>
	<g>
		<polygon class="st11" points="106.77,228.63 106.84,264.65 106.77,282.65 104.14,287.95 104.14,227.64 		"/>
	</g>
	<g>
		<polygon class="st9" points="93.39,227.6 93.39,287.95 104.14,287.95 104.14,227.64 		"/>
	</g>
	<g>
		<g>
			<path class="st8" d="M188.05,231.72c-0.04,0-0.09-0.01-0.13-0.02c-0.27-0.07-0.44-0.35-0.37-0.63
				c0.05-0.18,4.8-17.76,16.12-27.02c0.22-0.18,0.54-0.15,0.72,0.07c0.18,0.22,0.15,0.54-0.07,0.72
				c-11.06,9.05-15.73,26.31-15.78,26.48C188.49,231.56,188.28,231.72,188.05,231.72z"/>
		</g>
	</g>
	<g>
		<g>
			<path class="st8" d="M284.25,242.52c-0.04,0-0.09-0.01-0.13-0.02c-5.75-1.55-9.81-7.76-12.07-18.46
				c-1.66-7.87-1.68-15.4-1.68-15.48c0-0.28,0.23-0.51,0.51-0.51c0.28,0,0.51,0.23,0.51,0.51c0,0.29,0.15,29.48,12.99,32.94
				c0.27,0.07,0.44,0.36,0.36,0.63C284.69,242.37,284.48,242.52,284.25,242.52z"/>
		</g>
	</g>
	<g>
		<g>
			<path class="st8" d="M223.2,220.23c-0.95,0-1.86-0.08-2.75-0.24c-4.17-0.74-7.02-2.52-8.46-5.27c-2.51-4.79,0.17-10.75,0.28-11
				c0.12-0.26,0.42-0.37,0.68-0.25c0.26,0.12,0.37,0.42,0.25,0.68c-0.03,0.06-2.58,5.75-0.3,10.1c1.29,2.45,3.89,4.05,7.73,4.73
				c13.38,2.39,31.17-15.73,31.35-15.91c0.2-0.2,0.52-0.21,0.73-0.01c0.2,0.2,0.21,0.52,0.01,0.73c-0.05,0.05-4.61,4.72-10.8,9.02
				C234.81,217.74,228.53,220.23,223.2,220.23z"/>
		</g>
	</g>
	<g>
		<path class="st14" d="M216.09,200.08l5.14,8.75c0,0,6.81-5.4,8.94-4.63c2.13,0.77,6.17,3.86,6.17,3.86l-5.33-7.97l-9,6.94
			l-0.51,0.51l-2.57-9.26L216.09,200.08z"/>
	</g>
	<g>
		<path class="st15" d="M207.6,202.39c0,0,10.55-5.4,11.57-7.46c1.03-2.06,2.32,11.06,2.32,11.06l8.75-7.2l11.83-5.66
			c0,0,3.6,6.69,8.75,7.2l-12.35,11.32l-8.75-10.29l-8.23,6.17l-3.09-8.23C218.4,199.31,211.71,204.45,207.6,202.39z"/>
	</g>
	<g>
		<g>
			<path class="st3" d="M222.52,163.55c-0.23,0-0.45-0.1-0.6-0.29c-0.27-0.33-0.21-0.82,0.12-1.08c0.12-0.09,2.9-2.29,5.3-1.69
				c0.41,0.1,0.66,0.52,0.56,0.94c-0.1,0.41-0.52,0.66-0.94,0.56c-1.38-0.34-3.33,0.89-3.96,1.4
				C222.86,163.5,222.69,163.55,222.52,163.55z"/>
		</g>
	</g>
	<g>
		<g>
			<path class="st3" d="M235.89,166.64c-0.25,0-0.49-0.12-0.64-0.34c-0.75-1.13-2.91-2.43-3.68-2.83c-0.38-0.2-0.52-0.67-0.32-1.04
				c0.2-0.38,0.67-0.52,1.04-0.32c0.13,0.07,3.12,1.65,4.24,3.34c0.24,0.35,0.14,0.83-0.21,1.07
				C236.19,166.6,236.04,166.64,235.89,166.64z"/>
		</g>
	</g>
	<g>
		<g>
			<path class="st5" d="M225.78,175.6c-1.08,0-1.88-0.27-2.42-0.8c-0.43-0.43,0.59-2.96,3.04-7.51c0.07-0.12,0.22-0.17,0.35-0.1
				c0.13,0.07,0.17,0.22,0.1,0.35c-1.63,3.03-3.24,6.45-3.1,6.94c0.66,0.64,1.93,0.79,3.86,0.4c0.13-0.03,0.27,0.06,0.3,0.2
				c0.03,0.14-0.06,0.27-0.2,0.3C226.99,175.52,226.35,175.6,225.78,175.6z"/>
		</g>
	</g>
	<g>
		<g>
			<path class="st2" d="M234.86,170.76c-0.11,0-0.21-0.07-0.24-0.18c-0.95-2.85-4.83-2.4-4.87-2.4c-0.14,0.02-0.27-0.08-0.29-0.22
				c-0.02-0.14,0.08-0.27,0.22-0.29c0.04-0.01,4.34-0.5,5.42,2.75c0.04,0.13-0.03,0.28-0.16,0.33
				C234.92,170.75,234.89,170.76,234.86,170.76z"/>
		</g>
	</g>
	<g>
		<g>
			<path class="st2" d="M225.09,167.67c-0.1,0-0.2-0.06-0.24-0.16c-0.92-2.3-3.16-1.44-3.26-1.4c-0.13,0.05-0.28-0.01-0.33-0.14
				c-0.05-0.13,0.01-0.28,0.14-0.33c0.05-0.02,1.25-0.49,2.4,0c0.68,0.29,1.2,0.86,1.53,1.68c0.05,0.13-0.01,0.28-0.14,0.33
				C225.16,167.66,225.12,167.67,225.09,167.67z"/>
		</g>
	</g>
	<g>
		<path class="st16" d="M224.57,178.73c-2.01-0.67-3.13-2.66-3.37-2.36c-0.23,0.3-0.77,4.27,3.37,4.93
			c4.14,0.67,6.17-3.09,6.17-3.09S226.12,179.24,224.57,178.73z"/>
	</g>
	<g>
		<path class="st5" d="M242.57,181.84c-5.67,11.29-22.99,12.15-22.99,12.15c0.36-2.68,0.81-5.07,1.39-6.52
			C236.48,191.98,242.26,182.38,242.57,181.84z"/>
	</g>
	<g>
		<g>
			<g>
				<path class="st17" d="M158.21,101.56c0,15.34-12.44,27.78-27.78,27.78c-12.06,0-22.33-7.69-26.16-18.43
					c-1.05-2.92-1.62-6.07-1.62-9.35c0-15.34,12.44-27.78,27.78-27.78c11.41,0,21.21,6.88,25.49,16.71
					C157.39,93.88,158.21,97.63,158.21,101.56z"/>
			</g>
		</g>
		<g>
			<g>
				<path class="st18" d="M158.21,101.56c0,15.34-12.44,27.78-27.78,27.78c-12.06,0-22.33-7.69-26.16-18.43l51.65-20.42
					C157.39,93.88,158.21,97.63,158.21,101.56z"/>
			</g>
		</g>
		<g>
			<g>
				<circle class="st19" cx="130.43" cy="101.56" r="21.61"/>
			</g>
			<g>
				<path class="st20" d="M130.43,123.68c-12.2,0-22.12-9.92-22.12-22.12s9.92-22.12,22.12-22.12c12.2,0,22.12,9.92,22.12,22.12
					S142.63,123.68,130.43,123.68z M130.43,80.47c-11.63,0-21.09,9.46-21.09,21.09s9.46,21.09,21.09,21.09
					c11.63,0,21.09-9.46,21.09-21.09S142.06,80.47,130.43,80.47z"/>
			</g>
		</g>
		<g>
			<g>
				<g>
					<g>
						<path class="st21" d="M130.42,92.42c-5.06,0-9.29,4.12-9.29,9.18c0,5.06,4.23,9.29,9.29,9.29c5.06,0,9.18-4.23,9.18-9.29
							S135.48,92.42,130.42,92.42z M132.09,105.78h-0.83v0.83c0,1.1-1.67,1.1-1.67,0v-0.83h-2.5c-1.1,0-1.1-1.67,0-1.67h0.83V99.1
							h-0.83c-1.1,0-1.1-1.67,0-1.67h2.5V96.6c0-1.1,1.67-1.1,1.67,0v0.83h0.83c2.14,0,3.32,2.55,1.85,4.17
							C135.41,103.23,134.23,105.78,132.09,105.78z"/>
					</g>
				</g>
			</g>
		</g>
		<g>
			<g>
				<g>
					<g>
						<path class="st17" d="M132.09,102.44h-2.5v1.67h2.5C133.19,104.11,133.19,102.44,132.09,102.44z"/>
					</g>
				</g>
			</g>
		</g>
		<g>
			<g>
				<g>
					<g>
						<path class="st17" d="M132.09,99.1h-2.5v1.67h2.5C133.19,100.77,133.19,99.1,132.09,99.1z"/>
					</g>
				</g>
			</g>
		</g>
		<g>
			<g>
				<g>
					<g>
						<path class="st17" d="M120.29,90.75c-1.38,0-2.5,1.12-2.5,2.5c0,1.38,1.12,2.5,2.5,2.5s2.5-1.12,2.5-2.5
							C122.8,91.88,121.67,90.75,120.29,90.75z"/>
					</g>
				</g>
			</g>
		</g>
		<g>
			<g>
				<g>
					<g>
						<path class="st17" d="M130.42,87.42c-2.79,0-5.58,0.83-7.87,2.34c0.49,0.32,0.91,0.73,1.23,1.21c1.95-1.21,4.3-1.9,6.64-1.9
							c6.9,0,12.53,5.63,12.53,12.53c0,1.56-0.32,3.19-0.88,4.62c0.54,0.23,1.01,0.58,1.4,1c0.74-1.73,1.14-3.71,1.14-5.62
							C144.61,93.78,138.24,87.42,130.42,87.42z"/>
					</g>
				</g>
			</g>
		</g>
		<g>
			<g>
				<g>
					<g>
						<path class="st17" d="M136.95,112.35c-1.95,1.21-4.19,1.9-6.53,1.9c-6.9,0-12.64-5.74-12.64-12.64c0-1.56,0.32-3.08,0.88-4.51
							c-0.54-0.23-1.01-0.58-1.4-1c-0.74,1.73-1.14,3.71-1.14,5.62c0,7.82,6.48,14.19,14.3,14.19c2.79,0,5.47-0.83,7.76-2.34
							C137.69,113.25,137.27,112.84,136.95,112.35z"/>
					</g>
				</g>
			</g>
		</g>
		<g>
			<g>
				<g>
					<g>
						<path class="st17" d="M140.44,107.56c-1.38,0-2.5,1.12-2.5,2.5c0,1.38,1.12,2.5,2.5,2.5c1.38,0,2.5-1.12,2.5-2.5
							C142.94,108.68,141.82,107.56,140.44,107.56z"/>
					</g>
				</g>
			</g>
		</g>
	</g>
	<g>
		<g>
			<g>
				<path class="st17" d="M400,153.01c0,15.34-12.44,27.78-27.78,27.78c-12.06,0-22.33-7.69-26.16-18.43
					c-1.05-2.92-1.62-6.07-1.62-9.35c0-15.34,12.44-27.78,27.78-27.78c11.41,0,21.21,6.88,25.49,16.71
					C399.18,145.33,400,149.07,400,153.01z"/>
			</g>
		</g>
		<g>
			<g>
				<path class="st18" d="M400,153.01c0,15.34-12.44,27.78-27.78,27.78c-12.06,0-22.33-7.69-26.16-18.43l51.65-20.42
					C399.18,145.33,400,149.07,400,153.01z"/>
			</g>
		</g>
		<g>
			<g>
				<circle class="st19" cx="372.22" cy="153.01" r="21.61"/>
			</g>
			<g>
				<path class="st20" d="M372.22,175.13c-12.2,0-22.12-9.92-22.12-22.12s9.92-22.12,22.12-22.12c12.2,0,22.12,9.92,22.12,22.12
					S384.42,175.13,372.22,175.13z M372.22,131.91c-11.63,0-21.09,9.46-21.09,21.09c0,11.63,9.46,21.09,21.09,21.09
					c11.63,0,21.09-9.46,21.09-21.09C393.31,141.38,383.85,131.91,372.22,131.91z"/>
			</g>
		</g>
		<g>
			<g>
				<g>
					<g>
						<path class="st21" d="M372.21,143.87c-5.06,0-9.29,4.12-9.29,9.18c0,5.06,4.23,9.29,9.29,9.29s9.18-4.23,9.18-9.29
							C381.39,147.99,377.27,143.87,372.21,143.87z M373.88,157.22h-0.83v0.83c0,1.1-1.67,1.1-1.67,0v-0.83h-2.5
							c-1.1,0-1.1-1.67,0-1.67h0.83v-5.01h-0.83c-1.1,0-1.1-1.67,0-1.67h2.5v-0.83c0-1.1,1.67-1.1,1.67,0v0.83h0.83
							c2.14,0,3.32,2.55,1.85,4.17C377.2,154.68,376.02,157.22,373.88,157.22z"/>
					</g>
				</g>
			</g>
		</g>
		<g>
			<g>
				<g>
					<g>
						<path class="st17" d="M373.88,153.88h-2.5v1.67h2.5C374.98,155.55,374.98,153.88,373.88,153.88z"/>
					</g>
				</g>
			</g>
		</g>
		<g>
			<g>
				<g>
					<g>
						<path class="st17" d="M373.88,150.55h-2.5v1.67h2.5C374.98,152.22,374.98,150.55,373.88,150.55z"/>
					</g>
				</g>
			</g>
		</g>
		<g>
			<g>
				<g>
					<g>
						<path class="st17" d="M362.08,142.2c-1.38,0-2.5,1.12-2.5,2.5c0,1.38,1.12,2.5,2.5,2.5s2.5-1.12,2.5-2.5
							C364.58,143.32,363.46,142.2,362.08,142.2z"/>
					</g>
				</g>
			</g>
		</g>
		<g>
			<g>
				<g>
					<g>
						<path class="st17" d="M372.21,138.86c-2.79,0-5.58,0.83-7.87,2.34c0.49,0.32,0.91,0.73,1.23,1.21c1.95-1.21,4.3-1.9,6.64-1.9
							c6.9,0,12.53,5.63,12.53,12.53c0,1.56-0.32,3.19-0.88,4.62c0.54,0.23,1.01,0.58,1.4,1c0.74-1.73,1.14-3.71,1.14-5.62
							C386.4,145.23,380.03,138.86,372.21,138.86z"/>
					</g>
				</g>
			</g>
		</g>
		<g>
			<g>
				<g>
					<g>
						<path class="st17" d="M378.74,163.8c-1.95,1.21-4.19,1.9-6.53,1.9c-6.9,0-12.64-5.74-12.64-12.64c0-1.56,0.32-3.08,0.88-4.51
							c-0.54-0.23-1.01-0.58-1.4-1c-0.74,1.73-1.14,3.71-1.14,5.62c0,7.82,6.48,14.19,14.3,14.19c2.79,0,5.47-0.83,7.76-2.34
							C379.48,164.69,379.06,164.28,378.74,163.8z"/>
					</g>
				</g>
			</g>
		</g>
		<g>
			<g>
				<g>
					<g>
						<path class="st17" d="M382.22,159c-1.38,0-2.5,1.12-2.5,2.5c0,1.38,1.12,2.5,2.5,2.5c1.38,0,2.5-1.12,2.5-2.5
							C384.73,160.13,383.61,159,382.22,159z"/>
					</g>
				</g>
			</g>
		</g>
	</g>
	<g>
		<g>
			<g>
				<path class="st17" d="M265.99,42.97c-4.29,9.23-15.25,13.24-24.48,8.95c-7.26-3.37-11.29-10.87-10.59-18.41
					c0.19-2.05,0.73-4.1,1.64-6.08c4.29-9.23,15.25-13.24,24.48-8.95c6.86,3.19,10.84,10.07,10.66,17.18
					C267.64,38.12,267.09,40.6,265.99,42.97z"/>
			</g>
		</g>
		<g>
			<g>
				<path class="st18" d="M265.99,42.97c-4.29,9.23-15.25,13.24-24.48,8.95c-7.26-3.37-11.29-10.87-10.59-18.41l36.79,2.15
					C267.64,38.12,267.09,40.6,265.99,42.97z"/>
			</g>
		</g>
		<g>
			<g>
				<circle class="st19" cx="249.27" cy="35.2" r="14.34"/>
			</g>
			<g>
				<path class="st20" d="M243.08,48.51c-7.34-3.41-10.54-12.16-7.13-19.5c3.41-7.34,12.16-10.54,19.5-7.13s10.54,12.16,7.13,19.5
					S250.42,51.92,243.08,48.51z M255.17,22.51c-7-3.25-15.34-0.2-18.59,6.8s-0.2,15.34,6.8,18.59s15.34,0.2,18.59-6.8
					C265.21,34.1,262.16,25.76,255.17,22.51z"/>
			</g>
		</g>
		<g>
			<g>
				<g>
					<g>
						<path class="st21" d="M251.82,29.7c-3.05-1.42-6.74-0.12-8.16,2.93s-0.05,6.78,2.99,8.19c3.05,1.42,6.71,0.02,8.12-3.03
							C256.19,34.74,254.86,31.11,251.82,29.7z M249.09,38.2l-0.5-0.23l-0.23,0.5c-0.31,0.66-1.31,0.2-1-0.47l0.23-0.5l-1.51-0.7
							c-0.66-0.31-0.2-1.31,0.47-1l0.5,0.23l1.4-3.01l-0.5-0.23c-0.66-0.31-0.2-1.31,0.47-1l1.51,0.7l0.23-0.5
							c0.31-0.66,1.31-0.2,1,0.47l-0.23,0.5l0.5,0.23c1.29,0.6,1.29,2.46-0.05,3.03C251.8,37.6,250.38,38.8,249.09,38.2z"/>
					</g>
				</g>
			</g>
		</g>
		<g>
			<g>
				<g>
					<g>
						<path class="st17" d="M250.02,36.19l-1.51-0.7l-0.47,1l1.51,0.7C250.22,37.5,250.68,36.5,250.02,36.19z"/>
					</g>
				</g>
			</g>
		</g>
		<g>
			<g>
				<g>
					<g>
						<path class="st17" d="M250.95,34.18l-1.51-0.7l-0.47,1l1.51,0.7C251.15,35.49,251.62,34.49,250.95,34.18z"/>
					</g>
				</g>
			</g>
		</g>
		<g>
			<g>
				<g>
					<g>
						<path class="st17" d="M246.19,25.86c-0.83-0.39-1.82-0.02-2.21,0.81c-0.39,0.83-0.02,1.82,0.81,2.21
							c0.83,0.39,1.82,0.02,2.21-0.81C247.38,27.24,247.02,26.25,246.19,25.86z"/>
					</g>
				</g>
			</g>
		</g>
		<g>
			<g>
				<g>
					<g>
						<path class="st17" d="M253.22,26.68c-1.68-0.78-3.59-1.06-5.39-0.79c0.21,0.33,0.34,0.69,0.4,1.07
							c1.51-0.18,3.12,0.06,4.53,0.72c4.15,1.93,5.97,6.89,4.04,11.05c-0.44,0.94-1.08,1.83-1.82,2.53
							c0.26,0.29,0.45,0.63,0.57,0.99c0.93-0.83,1.72-1.91,2.25-3.06C259.98,34.48,257.92,28.87,253.22,26.68z"/>
					</g>
				</g>
			</g>
		</g>
		<g>
			<g>
				<g>
					<g>
						<path class="st17" d="M250.18,43.52c-1.51,0.18-3.05-0.03-4.46-0.68c-4.15-1.93-6-6.99-4.07-11.14
							c0.44-0.94,1.05-1.76,1.79-2.47c-0.26-0.29-0.45-0.63-0.57-0.99c-0.93,0.83-1.72,1.91-2.25,3.06
							c-2.19,4.71-0.07,10.35,4.64,12.54c1.68,0.78,3.52,1.03,5.33,0.76C250.37,44.26,250.23,43.9,250.18,43.52z"/>
					</g>
				</g>
			</g>
		</g>
		<g>
			<g>
				<g>
					<g>
						<path class="st17" d="M253.61,41.61c-0.83-0.39-1.82-0.02-2.21,0.81c-0.39,0.83-0.02,1.82,0.81,2.21
							c0.83,0.39,1.82,0.02,2.21-0.81C254.8,42.98,254.44,41.99,253.61,41.61z"/>
					</g>
				</g>
			</g>
		</g>
	</g>
	<g>
		<g>
			<g>
				<path class="st17" d="M204.25,82.06c-4.29,9.23-15.25,13.24-24.48,8.95c-7.26-3.37-11.29-10.87-10.59-18.41
					c0.19-2.05,0.73-4.1,1.64-6.08c4.29-9.23,15.25-13.24,24.48-8.95c6.86,3.19,10.84,10.07,10.66,17.18
					C205.91,77.21,205.35,79.7,204.25,82.06z"/>
			</g>
		</g>
		<g>
			<g>
				<path class="st18" d="M204.25,82.06c-4.29,9.23-15.25,13.24-24.48,8.95c-7.26-3.37-11.29-10.87-10.59-18.41l36.79,2.15
					C205.91,77.21,205.35,79.7,204.25,82.06z"/>
			</g>
		</g>
		<g>
			<g>
				<circle class="st19" cx="187.54" cy="74.3" r="14.34"/>
			</g>
			<g>
				<path class="st20" d="M181.35,87.61c-7.34-3.41-10.54-12.16-7.13-19.5c3.41-7.34,12.16-10.54,19.5-7.13s10.54,12.16,7.13,19.5
					C197.44,87.82,188.69,91.02,181.35,87.61z M193.43,61.6c-7-3.25-15.34-0.2-18.59,6.8s-0.2,15.34,6.8,18.59s15.34,0.2,18.59-6.8
					S200.43,64.86,193.43,61.6z"/>
			</g>
		</g>
		<g>
			<g>
				<g>
					<g>
						<path class="st21" d="M190.08,68.79c-3.05-1.42-6.74-0.12-8.16,2.93s-0.05,6.78,2.99,8.19c3.05,1.42,6.71,0.02,8.12-3.03
							C194.46,73.84,193.13,70.21,190.08,68.79z M187.35,77.3l-0.5-0.23l-0.23,0.5c-0.31,0.66-1.31,0.2-1-0.47l0.23-0.5l-1.51-0.7
							c-0.66-0.31-0.2-1.31,0.47-1l0.5,0.23l1.4-3.01l-0.5-0.23c-0.66-0.31-0.2-1.31,0.47-1l1.51,0.7l0.23-0.5
							c0.31-0.66,1.31-0.2,1,0.47l-0.23,0.5l0.5,0.23c1.29,0.6,1.29,2.46-0.05,3.03C190.06,76.69,188.64,77.9,187.35,77.3z"/>
					</g>
				</g>
			</g>
		</g>
		<g>
			<g>
				<g>
					<g>
						<path class="st17" d="M188.29,75.29l-1.51-0.7l-0.47,1l1.51,0.7C188.48,76.6,188.95,75.6,188.29,75.29z"/>
					</g>
				</g>
			</g>
		</g>
		<g>
			<g>
				<g>
					<g>
						<path class="st17" d="M189.22,73.28l-1.51-0.7l-0.47,1l1.51,0.7C189.42,74.59,189.88,73.59,189.22,73.28z"/>
					</g>
				</g>
			</g>
		</g>
		<g>
			<g>
				<g>
					<g>
						<path class="st17" d="M184.45,64.96c-0.83-0.39-1.82-0.02-2.21,0.81c-0.39,0.83-0.02,1.82,0.81,2.21
							c0.83,0.39,1.82,0.02,2.21-0.81C185.65,66.33,185.29,65.34,184.45,64.96z"/>
					</g>
				</g>
			</g>
		</g>
		<g>
			<g>
				<g>
					<g>
						<path class="st17" d="M191.48,65.78c-1.68-0.78-3.59-1.06-5.39-0.79c0.21,0.33,0.34,0.69,0.4,1.07
							c1.51-0.18,3.12,0.06,4.53,0.72c4.15,1.93,5.97,6.89,4.04,11.05c-0.44,0.94-1.08,1.83-1.82,2.53
							c0.26,0.29,0.45,0.63,0.57,0.99c0.93-0.83,1.72-1.91,2.25-3.06C198.24,73.58,196.19,67.97,191.48,65.78z"/>
					</g>
				</g>
			</g>
		</g>
		<g>
			<g>
				<g>
					<g>
						<path class="st17" d="M188.44,82.61c-1.51,0.18-3.05-0.03-4.46-0.68c-4.15-1.93-6-6.99-4.07-11.14
							c0.44-0.94,1.05-1.76,1.79-2.47c-0.26-0.29-0.45-0.63-0.57-0.99c-0.93,0.83-1.72,1.91-2.25,3.06
							c-2.19,4.71-0.07,10.35,4.64,12.54c1.68,0.78,3.52,1.03,5.33,0.76C188.64,83.36,188.5,82.99,188.44,82.61z"/>
					</g>
				</g>
			</g>
		</g>
		<g>
			<g>
				<g>
					<g>
						<path class="st17" d="M191.88,80.7c-0.83-0.39-1.82-0.02-2.21,0.81c-0.39,0.83-0.02,1.82,0.81,2.21s1.82,0.02,2.21-0.81
							C193.07,82.08,192.71,81.09,191.88,80.7z"/>
					</g>
				</g>
			</g>
		</g>
	</g>
	<g>
		<g>
			<g>
				<path class="st17" d="M270.1,98.48c0,12.36-10.02,22.38-22.38,22.38c-9.72,0-17.99-6.2-21.08-14.85
					c-0.85-2.35-1.3-4.89-1.3-7.53c0-12.36,10.02-22.38,22.38-22.38c9.19,0,17.08,5.54,20.53,13.46
					C269.44,92.29,270.1,95.31,270.1,98.48z"/>
			</g>
		</g>
		<g>
			<g>
				<path class="st18" d="M270.1,98.48c0,12.36-10.02,22.38-22.38,22.38c-9.72,0-17.99-6.2-21.08-14.85l41.61-16.45
					C269.44,92.29,270.1,95.31,270.1,98.48z"/>
			</g>
		</g>
		<g>
			<g>
				<circle class="st19" cx="247.72" cy="98.48" r="17.41"/>
			</g>
			<g>
				<path class="st20" d="M247.72,116.3c-9.83,0-17.82-7.99-17.82-17.82s7.99-17.82,17.82-17.82c9.83,0,17.82,7.99,17.82,17.82
					S257.55,116.3,247.72,116.3z M247.72,81.48c-9.37,0-16.99,7.62-16.99,16.99s7.62,16.99,16.99,16.99
					c9.37,0,16.99-7.62,16.99-16.99S257.09,81.48,247.72,81.48z"/>
			</g>
		</g>
		<g>
			<g>
				<g>
					<g>
						<path class="st21" d="M247.71,91.11c-4.08,0-7.49,3.32-7.49,7.4s3.41,7.49,7.49,7.49c4.08,0,7.4-3.41,7.4-7.49
							S251.79,91.11,247.71,91.11z M249.06,101.87h-0.67v0.67c0,0.89-1.34,0.89-1.34,0v-0.67h-2.02c-0.89,0-0.89-1.34,0-1.34h0.67
							v-4.03h-0.67c-0.89,0-0.89-1.34,0-1.34h2.02v-0.67c0-0.89,1.34-0.89,1.34,0v0.67h0.67c1.73,0,2.67,2.05,1.49,3.36
							C251.73,99.82,250.79,101.87,249.06,101.87z"/>
					</g>
				</g>
			</g>
		</g>
		<g>
			<g>
				<g>
					<g>
						<path class="st17" d="M249.06,99.18h-2.02v1.34h2.02C249.95,100.53,249.95,99.18,249.06,99.18z"/>
					</g>
				</g>
			</g>
		</g>
		<g>
			<g>
				<g>
					<g>
						<path class="st17" d="M249.06,96.49h-2.02v1.34h2.02C249.95,97.84,249.95,96.49,249.06,96.49z"/>
					</g>
				</g>
			</g>
		</g>
		<g>
			<g>
				<g>
					<g>
						<path class="st17" d="M239.56,89.77c-1.11,0-2.02,0.9-2.02,2.02s0.9,2.02,2.02,2.02c1.11,0,2.02-0.9,2.02-2.02
							C241.57,90.67,240.67,89.77,239.56,89.77z"/>
					</g>
				</g>
			</g>
		</g>
		<g>
			<g>
				<g>
					<g>
						<path class="st17" d="M247.71,87.08c-2.25,0-4.49,0.67-6.34,1.89c0.39,0.25,0.73,0.59,0.99,0.98
							c1.57-0.97,3.47-1.53,5.35-1.53c5.56,0,10.1,4.53,10.1,10.1c0,1.26-0.26,2.57-0.71,3.72c0.43,0.19,0.81,0.46,1.13,0.8
							c0.6-1.39,0.91-2.99,0.91-4.52C259.15,92.21,254.02,87.08,247.71,87.08z"/>
					</g>
				</g>
			</g>
		</g>
		<g>
			<g>
				<g>
					<g>
						<path class="st17" d="M252.98,107.17c-1.57,0.97-3.38,1.53-5.26,1.53c-5.56,0-10.18-4.62-10.18-10.18
							c0-1.26,0.26-2.48,0.71-3.63c-0.43-0.19-0.81-0.46-1.13-0.8c-0.6,1.39-0.91,2.99-0.91,4.52c0,6.3,5.22,11.43,11.52,11.43
							c2.25,0,4.4-0.67,6.25-1.89C253.57,107.89,253.24,107.56,252.98,107.17z"/>
					</g>
				</g>
			</g>
		</g>
		<g>
			<g>
				<g>
					<g>
						<path class="st17" d="M255.78,103.31c-1.11,0-2.02,0.9-2.02,2.02s0.9,2.02,2.02,2.02s2.02-0.9,2.02-2.02
							S256.9,103.31,255.78,103.31z"/>
					</g>
				</g>
			</g>
		</g>
	</g>
	<g>
		<g>
			<g>
				<path class="st17" d="M336.52,92.71c-5.62,12.1-19.99,17.36-32.1,11.73c-9.52-4.42-14.8-14.25-13.88-24.13
					c0.24-2.69,0.95-5.38,2.15-7.97c5.62-12.1,19.99-17.36,32.1-11.73c9,4.18,14.21,13.2,13.98,22.52
					C338.69,86.35,337.96,89.61,336.52,92.71z"/>
			</g>
		</g>
		<g>
			<g>
				<path class="st18" d="M336.52,92.71c-5.62,12.1-19.99,17.36-32.1,11.73c-9.52-4.42-14.8-14.25-13.88-24.13l48.23,2.82
					C338.69,86.35,337.96,89.61,336.52,92.71z"/>
			</g>
		</g>
		<g>
			<g>
				<circle class="st19" cx="314.6" cy="82.53" r="18.79"/>
			</g>
			<g>
				<path class="st20" d="M306.49,99.98c-9.62-4.47-13.81-15.94-9.34-25.56s15.94-13.81,25.56-9.34
					c9.62,4.47,13.81,15.94,9.34,25.56S316.12,104.45,306.49,99.98z M322.33,65.89c-9.17-4.26-20.11-0.27-24.37,8.91
					s-0.27,20.11,8.91,24.37c9.17,4.26,20.11,0.27,24.37-8.91S331.51,70.15,322.33,65.89z"/>
			</g>
		</g>
		<g>
			<g>
				<g>
					<g>
						<path class="st21" d="M317.94,75.31c-3.99-1.86-8.84-0.16-10.7,3.84c-1.86,3.99-0.07,8.88,3.92,10.74
							c3.99,1.86,8.79,0.03,10.65-3.97S321.94,77.17,317.94,75.31z M314.36,86.46l-0.66-0.31l-0.31,0.66
							c-0.4,0.87-1.72,0.26-1.32-0.61l0.31-0.66l-1.98-0.92c-0.87-0.4-0.26-1.72,0.61-1.32l0.66,0.31l1.84-3.95l-0.66-0.31
							c-0.87-0.4-0.26-1.72,0.61-1.32l1.98,0.92l0.31-0.66c0.4-0.87,1.72-0.26,1.32,0.61l-0.31,0.66l0.66,0.31
							c1.69,0.79,1.69,3.23-0.07,3.97C317.92,85.67,316.05,87.25,314.36,86.46z"/>
					</g>
				</g>
			</g>
		</g>
		<g>
			<g>
				<g>
					<g>
						<path class="st17" d="M315.59,83.83l-1.98-0.92L313,84.23l1.98,0.92C315.85,85.55,316.46,84.23,315.59,83.83z"/>
					</g>
				</g>
			</g>
		</g>
		<g>
			<g>
				<g>
					<g>
						<path class="st17" d="M316.81,81.19l-1.98-0.92l-0.61,1.32l1.98,0.92C317.07,82.92,317.68,81.6,316.81,81.19z"/>
					</g>
				</g>
			</g>
		</g>
		<g>
			<g>
				<g>
					<g>
						<path class="st17" d="M310.56,70.29c-1.09-0.51-2.39-0.03-2.89,1.06s-0.03,2.39,1.06,2.89s2.39,0.03,2.89-1.06
							C312.13,72.09,311.65,70.79,310.56,70.29z"/>
					</g>
				</g>
			</g>
		</g>
		<g>
			<g>
				<g>
					<g>
						<path class="st17" d="M319.78,71.36c-2.2-1.02-4.71-1.39-7.07-1.04c0.27,0.43,0.45,0.91,0.52,1.41
							c1.98-0.24,4.09,0.08,5.94,0.94c5.45,2.53,7.82,9.03,5.29,14.48c-0.57,1.23-1.42,2.4-2.39,3.32c0.34,0.38,0.59,0.82,0.74,1.3
							c1.22-1.09,2.25-2.51,2.95-4.01C328.64,81.59,325.95,74.23,319.78,71.36z"/>
					</g>
				</g>
			</g>
		</g>
		<g>
			<g>
				<g>
					<g>
						<path class="st17" d="M315.79,93.43c-1.98,0.24-4-0.04-5.85-0.9c-5.45-2.53-7.87-9.16-5.34-14.61
							c0.57-1.23,1.38-2.31,2.35-3.23c-0.34-0.38-0.59-0.82-0.74-1.3c-1.22,1.09-2.25,2.51-2.95,4.01
							c-2.87,6.17-0.09,13.57,6.08,16.44c2.2,1.02,4.62,1.35,6.98,1C316.05,94.41,315.87,93.93,315.79,93.43z"/>
					</g>
				</g>
			</g>
		</g>
		<g>
			<g>
				<g>
					<g>
						<path class="st17" d="M320.3,90.93c-1.09-0.51-2.39-0.03-2.89,1.06s-0.03,2.39,1.06,2.89s2.39,0.03,2.89-1.06
							S321.39,91.43,320.3,90.93z"/>
					</g>
				</g>
			</g>
		</g>
	</g>
	<g>
		<g>
			<path class="st22" d="M314.46,236.85c0.24,0.66,2.94,8.55-2.59,17.86c-3.36,5.65-8.45,6.03-8.95,6.05
				c-0.29-0.41-3.17-4.63-0.83-10.77C305.93,239.88,313.79,237.08,314.46,236.85z"/>
		</g>
		<g>
			<path class="st23" d="M314.46,236.85l-11.54,23.91l0,0c0.5-0.02,5.6-0.4,8.95-6.05C317.39,245.41,314.7,237.52,314.46,236.85z"/>
		</g>
		<g>
			<path class="st16" d="M302.56,261.5l0.36-0.74c-0.01-0.01-0.02-0.02-0.03-0.04C302.66,261.24,302.56,261.5,302.56,261.5z"/>
			<path d="M302.56,265.36c-0.53,0-1.06-0.11-1.57-0.34c-1.9-0.85-2.79-3.06-2-4.99c0,0,0.12-0.28,0.35-0.83
				c0.55-1.28,1.75-2.17,3.14-2.32c1.39-0.15,2.75,0.47,3.56,1.6c0.81,1.15,0.97,2.68,0.36,3.95l-0.36,0.74
				C305.37,264.56,303.99,265.36,302.56,265.36z"/>
		</g>
		<g>
			<path class="st22" d="M281.67,236.85c-0.24,0.66-2.94,8.55,2.59,17.86c3.36,5.65,8.45,6.03,8.95,6.05
				c0.29-0.41,3.17-4.63,0.83-10.77C290.2,239.88,282.34,237.08,281.67,236.85z"/>
		</g>
		<g>
			<path class="st23" d="M294.05,249.99c-3.85-10.12-11.7-12.91-12.37-13.14c6.83,13.04,10.51,21.39,11.57,23.87
				C293.65,260.14,296.33,255.98,294.05,249.99z"/>
		</g>
		<g>
			<path class="st22" d="M298.06,231.97c-0.82,0.8-10.33,10.44-8.82,27.95c0.92,10.64,8.11,14.78,8.82,15.17
				c0.71-0.39,7.9-4.53,8.82-15.17C308.4,242.41,298.89,232.77,298.06,231.97z"/>
		</g>
		<g>
			<path class="st23" d="M298.06,231.97v43.11c0.71-0.39,7.9-4.53,8.82-15.17C308.4,242.41,298.89,232.77,298.06,231.97z"/>
		</g>
		<g>
			<path class="st22" d="M318.43,258.78c1.79-6.15,1.18-11.87,1.18-11.87s-3.45,1.54-12.11,7.13c-6.73,4.35-8.82,11.98-9.44,14.03
				h7.91C311.73,268.08,316.82,264.3,318.43,258.78z"/>
		</g>
		<g>
			<path class="st23" d="M319.61,246.91c0,0-8.9,17.58-21.55,21.17h7.91c5.75,0,10.84-3.78,12.45-9.3
				C320.22,252.63,319.61,246.91,319.61,246.91z"/>
		</g>
		<g>
			<path class="st22" d="M277.7,258.78c-1.79-6.15-1.18-11.87-1.18-11.87s3.45,1.54,12.11,7.13c6.73,4.35,8.82,11.98,9.44,14.03
				h-7.91C284.4,268.08,279.31,264.3,277.7,258.78z"/>
		</g>
		<g>
			<path class="st23" d="M298.06,268.08c-0.62-2.06-2.71-9.68-9.44-14.03c-8.66-5.6-12.11-7.13-12.11-7.13
				S285.42,264.49,298.06,268.08z"/>
		</g>
		<g>
			<path class="st24" d="M303.79,286.86h-11.44c-3.04,0-5.64-2.16-6.19-5.15l-2.45-13.19h28.74l-2.45,13.19
				C309.42,284.69,306.82,286.86,303.79,286.86z"/>
		</g>
		<g>
			<path class="st25" d="M306.88,268.52l-2.45,13.19c-0.55,2.98-3.16,5.15-6.19,5.15h5.56c3.04,0,5.64-2.16,6.19-5.15l2.45-13.19
				L306.88,268.52L306.88,268.52L306.88,268.52z"/>
		</g>
		<g>
			<path class="st26" d="M312.93,271.48h-29.74c-1.21,0-2.18-0.98-2.18-2.18l0,0c0-1.21,0.98-2.18,2.18-2.18h29.74
				c1.21,0,2.18,0.98,2.18,2.18l0,0C315.12,270.5,314.14,271.48,312.93,271.48z"/>
		</g>
		<g>
			<path class="st27" d="M312.93,267.12h-3.5v4.36h3.5c1.21,0,2.18-0.98,2.18-2.18l0,0C315.12,268.09,314.14,267.12,312.93,267.12z"
				/>
		</g>
	</g>
</g>
</svg>
