<svg id="visual" viewBox="0 0 1366 675" width="1366" height="675" xmlns="http://www.w3.org/2000/svg" xmlns:xlink="http://www.w3.org/1999/xlink" version="1.1"><g><g transform="translate(754 253)"><path d="M51.1 -43.1C61.1 -28.2 60.7 -7.2 55.1 10.7C49.5 28.6 38.8 43.5 23.9 51.3C9 59.2 -10.1 59.9 -29.7 53.6C-49.3 47.2 -69.3 33.8 -74.8 15.5C-80.3 -2.9 -71.2 -26.2 -56.3 -42.2C-41.4 -58.3 -20.7 -67 -0.1 -67C20.5 -66.9 41.1 -58 51.1 -43.1Z" fill="#F7760E"></path></g><g transform="translate(566 130)"><path d="M36.6 -29.2C45.4 -18.2 49.1 -3.1 46.1 10.7C43.1 24.5 33.4 36.9 21 42.5C8.6 48 -6.6 46.6 -17.6 39.9C-28.5 33.3 -35.3 21.5 -38.7 8.3C-42.1 -4.8 -42.2 -19.2 -35.2 -29.8C-28.1 -40.4 -14.1 -47.2 -0.1 -47.1C13.9 -47.1 27.8 -40.2 36.6 -29.2Z" fill="#F7760E"></path></g><g transform="translate(1156 631)"><path d="M26.1 -20.8C32.4 -13.1 34.8 -2.3 31.8 5.7C28.7 13.7 20.2 18.9 10.5 24.6C0.9 30.3 -9.8 36.4 -19.5 34.2C-29.1 31.9 -37.7 21.2 -38.3 11C-38.9 0.7 -31.5 -9.3 -23.8 -17.4C-16 -25.4 -8 -31.7 1 -32.4C10 -33.2 19.9 -28.5 26.1 -20.8Z" fill="#F7760E"></path></g><g transform="translate(944 372)"><path d="M32.3 -24.5C39.9 -16.2 42.9 -2.8 39 6.7C35 16.2 24.2 21.9 14.3 24.8C4.4 27.8 -4.6 27.9 -13.8 24.9C-23.1 21.9 -32.7 15.8 -34.8 7.6C-37 -0.6 -31.7 -10.8 -24.6 -19C-17.6 -27.3 -8.8 -33.5 1.8 -34.9C12.3 -36.3 24.6 -32.9 32.3 -24.5Z" fill="#F7760E"></path></g><g transform="translate(304 147)"><path d="M39.3 -30.7C49.9 -18.1 56.7 -1.8 53.4 12.1C50.2 26 36.9 37.5 23.4 41.1C9.9 44.8 -3.8 40.5 -18.8 34.9C-33.7 29.2 -50 22.2 -52.6 11.8C-55.1 1.4 -43.8 -12.3 -32.8 -25C-21.7 -37.8 -10.9 -49.6 1.8 -51C14.4 -52.4 28.7 -43.4 39.3 -30.7Z" fill="#F7760E"></path></g><g transform="translate(1267 43)"><path d="M33.8 -23.5C44.7 -13.2 55.2 0.9 55.4 17.8C55.7 34.8 45.8 54.6 29 64.3C12.2 74 -11.5 73.5 -30.4 64C-49.4 54.6 -63.6 36.2 -63.7 19.3C-63.8 2.3 -49.8 -13.1 -36.8 -23.8C-23.9 -34.6 -11.9 -40.6 -0.2 -40.4C11.4 -40.2 22.9 -33.8 33.8 -23.5Z" fill="#F7760E"></path></g><g transform="translate(42 21)"><path d="M34.3 -28.4C40.8 -19.3 39.7 -5.2 35.2 5.4C30.7 16.1 22.8 23.4 11.9 31.1C1 38.8 -12.7 46.9 -25.5 44.2C-38.2 41.4 -49.9 27.7 -52.9 12.6C-56 -2.5 -50.3 -19.1 -40.1 -29.1C-29.8 -39.1 -14.9 -42.5 -0.5 -42.1C13.9 -41.7 27.9 -37.5 34.3 -28.4Z" fill="#F7760E"></path></g><g transform="translate(1221 297)"><path d="M43 -34.8C50.7 -24.6 48.5 -7 45.1 11.1C41.6 29.3 36.9 48.1 25.5 54C14.1 59.9 -4 52.9 -20.4 44.3C-36.7 35.6 -51.3 25.3 -56.1 10.8C-61 -3.6 -56.2 -22.3 -45.2 -33.2C-34.2 -44.2 -17.1 -47.4 0.3 -47.6C17.6 -47.8 35.3 -45 43 -34.8Z" fill="#F7760E"></path></g><g transform="translate(863 43)"><path d="M55.8 -44.5C66.7 -30.7 66.2 -7.9 60.1 11.8C54.1 31.5 42.6 48.1 26.8 55.7C11 63.3 -9.1 62 -23.8 53.4C-38.6 44.8 -47.9 28.9 -55 9.3C-62.1 -10.3 -66.8 -33.7 -57.3 -47.2C-47.7 -60.6 -23.9 -64.1 -0.7 -63.5C22.4 -63 44.8 -58.3 55.8 -44.5Z" fill="#F7760E"></path></g><g transform="translate(564 495)"><path d="M41.3 -32.1C50.3 -21.7 52.1 -4.7 49.8 13.6C47.4 31.9 40.8 51.6 27.6 58.2C14.5 64.9 -5.4 58.6 -19.3 48.6C-33.1 38.6 -41.1 24.9 -45 9.7C-48.9 -5.5 -48.9 -22.2 -40.7 -32.4C-32.5 -42.6 -16.3 -46.3 -0.1 -46.2C16.2 -46.2 32.3 -42.4 41.3 -32.1Z" fill="#F7760E"></path></g><g transform="translate(153 584)"><path d="M51.5 -44.3C60.8 -29.3 58.5 -8.2 51.4 7.2C44.3 22.7 32.4 32.6 20 36.7C7.6 40.8 -5.2 39.1 -19 34.4C-32.8 29.7 -47.6 22 -52.6 9.3C-57.7 -3.4 -53 -21 -42.6 -36.2C-32.2 -51.3 -16.1 -64.1 2.5 -66.1C21.1 -68.1 42.1 -59.2 51.5 -44.3Z" fill="#F7760E"></path></g><g transform="translate(812 644)"><path d="M24.5 -19.8C30.4 -12.3 32.7 -2.1 29.9 5.5C27.1 13.1 19.2 18.2 11 21.6C2.9 25.1 -5.4 26.8 -12.1 24C-18.8 21.3 -23.9 13.9 -25.5 6.1C-27 -1.7 -25 -10 -20.2 -17.3C-15.3 -24.7 -7.7 -31 0.8 -31.7C9.4 -32.3 18.7 -27.4 24.5 -19.8Z" fill="#F7760E"></path></g><g transform="translate(366 658)"><path d="M35.4 -29.1C44.2 -17.1 48.7 -2.5 46.7 12.4C44.7 27.3 36.2 42.5 22.3 51C8.4 59.5 -11 61.3 -24.9 53.8C-38.8 46.3 -47.3 29.5 -48.1 14.3C-49 -1 -42.2 -14.6 -32.9 -26.8C-23.7 -38.9 -11.8 -49.5 0.7 -50.1C13.3 -50.7 26.5 -41.2 35.4 -29.1Z" fill="#F7760E"></path></g><g transform="translate(92 291)"><path d="M49.2 -38.4C62.2 -22.9 70.1 -2.6 65.5 13.8C60.9 30.2 43.7 42.7 27.2 47C10.7 51.3 -5.2 47.5 -16.7 39.9C-28.2 32.4 -35.4 21.1 -39.2 8C-42.9 -5.1 -43.3 -19.9 -36.2 -34C-29.1 -48.1 -14.5 -61.4 1.8 -62.9C18.1 -64.3 36.2 -53.8 49.2 -38.4Z" fill="#F7760E"></path></g><g transform="translate(1044 155)"><path d="M40.5 -31.9C55.3 -13.8 72 3.2 71.4 20.4C70.8 37.6 52.8 54.9 32.8 62.3C12.8 69.7 -9.1 67.1 -27.1 57.9C-45 48.6 -59 32.6 -65.8 12.3C-72.5 -8 -72.2 -32.6 -60 -50.2C-47.9 -67.8 -23.9 -78.3 -5.5 -73.9C12.9 -69.5 25.7 -50.1 40.5 -31.9Z" fill="#F7760E"></path></g><g transform="translate(344 388)"><path d="M25.7 -23.5C31.5 -13.2 33.2 -2.6 32 9.1C30.7 20.8 26.5 33.6 16.3 41.3C6.1 49.1 -10.1 51.9 -22.9 46.2C-35.6 40.6 -45 26.5 -46.1 13C-47.2 -0.5 -40.1 -13.4 -31.1 -24.5C-22 -35.6 -11 -44.9 -0.5 -44.4C9.9 -44 19.8 -33.9 25.7 -23.5Z" fill="#F7760E"></path></g><g transform="translate(1364 539)"><path d="M35.2 -25.3C45.9 -14.6 55 0 53.5 14.5C52 28.9 39.9 43.2 25 49.4C10.2 55.6 -7.4 53.7 -20.5 46.1C-33.6 38.4 -42.2 25 -45.8 10.3C-49.3 -4.5 -47.7 -20.6 -39.2 -30.8C-30.7 -41 -15.4 -45.2 -1.6 -44C12.2 -42.8 24.5 -36 35.2 -25.3Z" fill="#F7760E"></path></g></g></svg>