<svg id="visual" viewBox="0 0 1366 675" width="1366" height="675" xmlns="http://www.w3.org/2000/svg" xmlns:xlink="http://www.w3.org/1999/xlink" version="1.1"><rect x="0" y="0" width="1366" height="675" fill="#ffffff"></rect><defs><linearGradient id="grad1_0" x1="50.6%" y1="100%" x2="100%" y2="0%"><stop offset="9.525925925925929%" stop-color="#ffffff" stop-opacity="1"></stop><stop offset="90.47407407407408%" stop-color="#ffffff" stop-opacity="1"></stop></linearGradient></defs><defs><linearGradient id="grad2_0" x1="0%" y1="100%" x2="49.4%" y2="0%"><stop offset="9.525925925925929%" stop-color="#ffffff" stop-opacity="1"></stop><stop offset="90.47407407407408%" stop-color="#ffffff" stop-opacity="1"></stop></linearGradient></defs><g transform="translate(1366, 675)"><path d="M-202.5 0C-182.9 -27 -163.4 -54 -149 -86C-134.5 -118 -125.2 -155.1 -101.3 -175.4C-77.3 -195.6 -38.6 -199.1 0 -202.5L0 0Z" fill="#FBAE3C"></path></g><g transform="translate(0, 0)"><path d="M202.5 0C195 33.9 187.4 67.8 171.5 99C155.5 130.2 131.2 158.6 101.3 175.4C71.3 192.2 35.6 197.3 0 202.5L0 0Z" fill="#FBAE3C"></path></g></svg>